<svg width="989" height="677" viewBox="0 0 989 677" fill="none" xmlns="http://www.w3.org/2000/svg">
<g clip-path="url(#clip0_14_8)">
<path opacity="0.1" d="M1036.35 355.131C1030.33 379.505 999.441 391.722 982.133 409.905C949.516 444.175 962.218 494.221 982.912 534.301C989.839 547.722 997.701 561.93 994.765 576.321C991.19 593.924 972.184 606.79 952.226 613.613C915.861 626.038 872.308 623.077 838.878 605.89C809.993 591.04 789.299 566.926 759.921 552.709C710.749 528.994 648.166 537.99 594.769 554.294C557 565.853 515.699 580.893 478.165 568.823C451.756 560.32 433.496 539.626 423.547 517.737C418.75 507.148 415.261 495.684 406.091 487.294C400.637 482.298 393.519 478.757 386.237 475.778C319.671 448.504 235.58 463.111 170.961 432.858C127.305 412.433 99.3467 373.902 86.9737 333.718C74.6007 293.534 76.0381 251.402 79.1811 210.014C81.415 180.576 85.4239 149.214 108.161 126.512C132.214 102.502 173.489 93.6096 210.808 98.138C248.126 102.666 281.937 118.97 311.696 138.123C348.928 162.072 383.372 191.884 429.028 201.581C460.12 208.187 492.824 204.568 524.895 203.313C578.508 201.226 632.139 205.91 685.449 210.967C711.425 213.452 737.487 216.058 763.237 219.833C769.01 220.676 774.782 221.585 780.554 222.561C783.446 223.054 786.338 223.565 789.213 224.093C791.464 224.5 793.706 224.959 795.949 225.366C799.487 226.053 803.014 226.774 806.53 227.531C816.625 229.695 826.626 232.146 836.523 234.934C870.932 244.64 898.518 262.268 931.013 274.581C952.192 282.607 975.284 284.824 995.337 295.041C1020.01 307.587 1042.68 329.502 1036.35 355.131Z" fill="#F9A826"/>
<path d="M813.856 413.66C862.742 413.66 902.372 374.03 902.372 325.144C902.372 276.258 862.742 236.628 813.856 236.628C764.97 236.628 725.34 276.258 725.34 325.144C725.34 374.03 764.97 413.66 813.856 413.66Z" fill="#F9A826"/>
<path d="M719.721 389.477C768.607 389.477 808.237 349.847 808.237 300.961C808.237 252.075 768.607 212.445 719.721 212.445C670.835 212.445 631.205 252.075 631.205 300.961C631.205 349.847 670.835 389.477 719.721 389.477Z" fill="#F9A826"/>
<path d="M616.096 390.342C664.982 390.342 704.612 350.713 704.612 301.827C704.612 252.941 664.982 213.311 616.096 213.311C567.21 213.311 527.58 252.941 527.58 301.827C527.58 350.713 567.21 390.342 616.096 390.342Z" fill="#F9A826"/>
<path d="M582.414 413.66C631.3 413.66 670.93 374.03 670.93 325.144C670.93 276.258 631.3 236.628 582.414 236.628C533.528 236.628 493.898 276.258 493.898 325.144C493.898 374.03 533.528 413.66 582.414 413.66Z" fill="#F9A826"/>
<path d="M525.415 421.435C574.301 421.435 613.931 381.805 613.931 332.919C613.931 284.033 574.301 244.404 525.415 244.404C476.529 244.404 436.899 284.033 436.899 332.919C436.899 381.805 476.529 421.435 525.415 421.435Z" fill="#F9A826"/>
<path d="M502.098 351.483C550.984 351.483 590.614 311.853 590.614 262.967C590.614 214.081 550.984 174.451 502.098 174.451C453.212 174.451 413.582 214.081 413.582 262.967C413.582 311.853 453.212 351.483 502.098 351.483Z" fill="#F9A826"/>
<path d="M528.004 270.301C576.89 270.301 616.52 230.671 616.52 181.785C616.52 132.899 576.89 93.2693 528.004 93.2693C479.118 93.2693 439.488 132.899 439.488 181.785C439.488 230.671 479.118 270.301 528.004 270.301Z" fill="#F9A826"/>
<path d="M577.228 270.301C626.113 270.301 665.743 230.671 665.743 181.785C665.743 132.899 626.113 93.2693 577.228 93.2693C528.342 93.2693 488.712 132.899 488.712 181.785C488.712 230.671 528.342 270.301 577.228 270.301Z" fill="#F9A826"/>
<path d="M605.731 234.031C654.617 234.031 694.247 194.401 694.247 145.515C694.247 96.6289 654.617 56.999 605.731 56.999C556.846 56.999 517.216 96.6289 517.216 145.515C517.216 194.401 556.846 234.031 605.731 234.031Z" fill="#F9A826"/>
<path d="M678.273 273.756C727.159 273.756 766.789 234.126 766.789 185.24C766.789 136.354 727.159 96.7241 678.273 96.7241C629.387 96.7241 589.757 136.354 589.757 185.24C589.757 234.126 629.387 273.756 678.273 273.756Z" fill="#F9A826"/>
<path d="M847.537 351.483C896.423 351.483 936.053 311.853 936.053 262.967C936.053 214.081 896.423 174.451 847.537 174.451C798.651 174.451 759.021 214.081 759.021 262.967C759.021 311.853 798.651 351.483 847.537 351.483Z" fill="#F9A826"/>
<path d="M796.582 307.437C845.468 307.437 885.098 267.808 885.098 218.922C885.098 170.036 845.468 130.406 796.582 130.406C747.696 130.406 708.066 170.036 708.066 218.922C708.066 267.808 747.696 307.437 796.582 307.437Z" fill="#F9A826"/>
<path d="M763.766 263.392C812.652 263.392 852.282 223.762 852.282 174.876C852.282 125.99 812.652 86.3599 763.766 86.3599C714.88 86.3599 675.25 125.99 675.25 174.876C675.25 223.762 714.88 263.392 763.766 263.392Z" fill="#F9A826"/>
<path d="M701.59 196.894C750.476 196.894 790.105 157.264 790.105 108.378C790.105 59.4924 750.476 19.8625 701.59 19.8625C652.704 19.8625 613.074 59.4924 613.074 108.378C613.074 157.264 652.704 196.894 701.59 196.894Z" fill="#F9A826"/>
<path d="M817.311 270.301C866.196 270.301 905.826 230.671 905.826 181.785C905.826 132.899 866.196 93.2693 817.311 93.2693C768.425 93.2693 728.795 132.899 728.795 181.785C728.795 230.671 768.425 270.301 817.311 270.301Z" fill="#F9A826"/>
<g opacity="0.1">
<path d="M813.856 413.66C862.742 413.66 902.372 374.03 902.372 325.144C902.372 276.258 862.742 236.628 813.856 236.628C764.97 236.628 725.34 276.258 725.34 325.144C725.34 374.03 764.97 413.66 813.856 413.66Z" fill="black"/>
<path d="M719.721 389.477C768.607 389.477 808.237 349.847 808.237 300.961C808.237 252.075 768.607 212.445 719.721 212.445C670.835 212.445 631.205 252.075 631.205 300.961C631.205 349.847 670.835 389.477 719.721 389.477Z" fill="black"/>
<path d="M616.096 390.342C664.982 390.342 704.612 350.713 704.612 301.827C704.612 252.941 664.982 213.311 616.096 213.311C567.21 213.311 527.58 252.941 527.58 301.827C527.58 350.713 567.21 390.342 616.096 390.342Z" fill="black"/>
<path d="M582.414 413.66C631.3 413.66 670.93 374.03 670.93 325.144C670.93 276.258 631.3 236.628 582.414 236.628C533.528 236.628 493.898 276.258 493.898 325.144C493.898 374.03 533.528 413.66 582.414 413.66Z" fill="black"/>
<path d="M525.415 421.435C574.301 421.435 613.931 381.805 613.931 332.919C613.931 284.033 574.301 244.404 525.415 244.404C476.529 244.404 436.899 284.033 436.899 332.919C436.899 381.805 476.529 421.435 525.415 421.435Z" fill="black"/>
<path d="M502.098 351.483C550.984 351.483 590.614 311.853 590.614 262.967C590.614 214.081 550.984 174.451 502.098 174.451C453.212 174.451 413.582 214.081 413.582 262.967C413.582 311.853 453.212 351.483 502.098 351.483Z" fill="black"/>
<path d="M528.004 270.301C576.89 270.301 616.52 230.671 616.52 181.785C616.52 132.899 576.89 93.2693 528.004 93.2693C479.118 93.2693 439.488 132.899 439.488 181.785C439.488 230.671 479.118 270.301 528.004 270.301Z" fill="black"/>
<path d="M577.228 270.301C626.114 270.301 665.744 230.671 665.744 181.785C665.744 132.899 626.114 93.2693 577.228 93.2693C528.342 93.2693 488.712 132.899 488.712 181.785C488.712 230.671 528.342 270.301 577.228 270.301Z" fill="black"/>
<path d="M605.731 234.03C654.617 234.03 694.247 194.401 694.247 145.515C694.247 96.6287 654.617 56.9988 605.731 56.9988C556.846 56.9988 517.216 96.6287 517.216 145.515C517.216 194.401 556.846 234.03 605.731 234.03Z" fill="black"/>
<path d="M678.272 273.756C727.158 273.756 766.788 234.126 766.788 185.24C766.788 136.354 727.158 96.7241 678.272 96.7241C629.386 96.7241 589.757 136.354 589.757 185.24C589.757 234.126 629.386 273.756 678.272 273.756Z" fill="black"/>
<path d="M847.538 351.483C896.424 351.483 936.053 311.853 936.053 262.967C936.053 214.081 896.424 174.451 847.538 174.451C798.652 174.451 759.022 214.081 759.022 262.967C759.022 311.853 798.652 351.483 847.538 351.483Z" fill="black"/>
<path d="M796.582 307.437C845.468 307.437 885.098 267.807 885.098 218.921C885.098 170.035 845.468 130.406 796.582 130.406C747.696 130.406 708.066 170.035 708.066 218.921C708.066 267.807 747.696 307.437 796.582 307.437Z" fill="black"/>
<path d="M763.766 263.392C812.652 263.392 852.282 223.762 852.282 174.876C852.282 125.99 812.652 86.3599 763.766 86.3599C714.88 86.3599 675.25 125.99 675.25 174.876C675.25 223.762 714.88 263.392 763.766 263.392Z" fill="black"/>
<path d="M701.59 196.894C750.476 196.894 790.106 157.264 790.106 108.378C790.106 59.4924 750.476 19.8625 701.59 19.8625C652.704 19.8625 613.074 59.4924 613.074 108.378C613.074 157.264 652.704 196.894 701.59 196.894Z" fill="black"/>
<path d="M817.311 270.301C866.196 270.301 905.826 230.671 905.826 181.785C905.826 132.899 866.196 93.2693 817.311 93.2693C768.425 93.2693 728.795 132.899 728.795 181.785C728.795 230.671 768.425 270.301 817.311 270.301Z" fill="black"/>
</g>
<path d="M770.139 480.261C770.139 480.261 824.255 434.778 797.482 370.012L770.71 359.986L741.661 449.419L770.139 480.261Z" fill="#67647E"/>
<path opacity="0.1" d="M773.023 356.903L779.43 359.302L750.909 447.108L775.793 474.053C773.733 476.105 772.451 477.179 772.451 477.179L743.965 446.337L773.023 356.903Z" fill="black"/>
<path opacity="0.1" d="M501.76 676.316C767.876 676.316 983.606 640.202 983.606 595.653C983.606 551.104 767.876 514.99 501.76 514.99C235.644 514.99 19.9146 551.104 19.9146 595.653C19.9146 640.202 235.644 676.316 501.76 676.316Z" fill="#F9A826"/>
<path d="M872.639 470.719C872.639 470.719 855.036 488.322 864.976 514.445C874.916 540.567 847.945 583.998 847.945 583.998L848.81 583.86C884.96 577.479 902.926 536.134 882.821 505.414C875.305 494.011 869.167 480.607 872.639 470.719Z" fill="#F9A826"/>
<path d="M872.638 470.719C872.638 470.719 862.698 492.296 872.638 509.899C882.578 527.502 874.37 576.898 847.936 583.998" stroke="#535461" stroke-miterlimit="10"/>
<path d="M903.991 541.918C903.991 541.918 883.903 538.723 882.076 556.724C880.249 574.725 843.442 577.219 843.442 577.219L844.135 577.678C874.517 597.592 903.558 590.38 899.177 563.902C897.558 554.057 897.687 544.169 903.991 541.918Z" fill="#F9A826"/>
<path opacity="0.2" d="M903.991 541.918C903.991 541.918 883.903 538.723 882.076 556.724C880.249 574.725 843.442 577.219 843.442 577.219L844.135 577.678C874.517 597.592 903.558 590.38 899.177 563.902C897.558 554.057 897.687 544.169 903.991 541.918Z" fill="#F5F5F5"/>
<path d="M903.991 541.918C903.991 541.918 888.406 545.382 889.678 559.521C890.951 573.66 866.526 590.692 843.451 577.219" stroke="#535461" stroke-miterlimit="10"/>
<path d="M525.744 385.528L532.775 413.669C532.775 413.669 582.449 420.145 615.567 416.076C621.422 415.245 627.043 413.217 632.079 410.118C634.876 408.465 639.292 407.746 645.327 412.266C655.665 420.058 706.404 482.4 698.187 547.079C697.549 551.952 695.323 556.48 691.853 559.961C688.383 563.442 683.862 565.682 678.991 566.335C668.873 567.714 659.201 571.374 650.704 577.037L625.594 593.757L883.055 588.129L856.326 555.772C856.326 555.772 838.039 540.299 823.969 538.888C819.865 538.481 816.479 534.714 813.743 529.597C797.716 499.595 778.546 471.386 757.766 444.449C742.631 424.829 729.929 404.153 731.115 391.165C733.929 360.211 731.115 309.567 731.115 309.567L677.658 302.537C677.658 302.537 684.688 370.073 619.975 386.948C555.261 403.824 525.744 385.528 525.744 385.528Z" fill="#67647E"/>
<g opacity="0.1">
<path d="M569.357 398.196C569.357 398.196 598.9 416.482 663.622 399.598C728.345 382.714 721.305 315.187 721.305 315.187L731.479 316.511C731.288 312.182 731.141 309.585 731.141 309.585L677.684 302.554C677.684 302.554 684.714 370.09 620.001 386.966C555.287 403.841 525.736 385.563 525.736 385.563L532.766 413.703C532.766 413.703 551.746 416.179 574.067 417.106L569.357 398.196Z" fill="black"/>
<path d="M694.317 589.696C702.814 584.032 712.486 580.373 722.604 578.994C727.465 578.348 731.978 576.12 735.445 572.654C738.913 569.188 741.143 564.676 741.791 559.815C750.051 495.136 699.287 432.683 688.974 424.925C677.718 416.483 672.09 426.327 672.09 426.327C668.107 427.373 664.057 428.145 659.968 428.639C678.203 452.883 704.291 499.388 698.187 547.148C697.539 552.008 695.309 556.52 691.841 559.987C688.373 563.453 683.86 565.681 679 566.327C668.882 567.705 659.209 571.365 650.712 577.028L625.603 593.748L690.334 592.337L694.317 589.696Z" fill="black"/>
</g>
<path d="M568.829 522.03C568.829 522.03 563.452 503.778 569.833 490.34C572.546 484.721 573.364 478.374 572.163 472.252C571.558 469.347 570.689 466.504 569.565 463.758" stroke="#535461" stroke-width="2" stroke-miterlimit="10"/>
<path d="M573.582 455.264C573.582 457.498 569.53 463.992 569.53 463.992C569.53 463.992 565.504 457.498 565.504 455.264C565.504 454.189 565.931 453.158 566.691 452.399C567.451 451.639 568.481 451.212 569.556 451.212C570.631 451.212 571.661 451.639 572.421 452.399C573.181 453.158 573.608 454.189 573.608 455.264H573.582Z" fill="#F9A826"/>
<path d="M580.284 467.654C579.072 469.533 572.145 472.78 572.145 472.78C572.145 472.78 572.275 465.135 573.487 463.256C573.768 462.792 574.14 462.39 574.58 462.072C575.019 461.755 575.518 461.529 576.047 461.407C576.576 461.286 577.123 461.273 577.657 461.367C578.192 461.462 578.701 461.662 579.156 461.957C579.611 462.252 580.003 462.636 580.307 463.085C580.611 463.534 580.822 464.04 580.927 464.572C581.032 465.104 581.03 465.652 580.919 466.183C580.809 466.714 580.593 467.217 580.284 467.663V467.654Z" fill="#F9A826"/>
<path d="M579.99 488.816C577.99 489.82 570.379 489.127 570.379 489.127C570.379 489.127 574.345 482.59 576.345 481.586C576.82 481.347 577.338 481.203 577.868 481.164C578.399 481.125 578.932 481.19 579.438 481.357C579.943 481.524 580.41 481.789 580.814 482.136C581.217 482.484 581.547 482.907 581.786 483.382C582.026 483.858 582.169 484.376 582.208 484.906C582.248 485.437 582.182 485.97 582.015 486.475C581.848 486.981 581.584 487.448 581.236 487.851C580.889 488.254 580.465 488.585 579.99 488.824V488.816Z" fill="#F9A826"/>
<path d="M576.163 504.808C574.362 506.141 566.742 506.739 566.742 506.739C566.742 506.739 569.548 499.622 571.349 498.297C572.214 497.71 573.274 497.48 574.305 497.656C575.336 497.832 576.259 498.4 576.881 499.242C577.503 500.083 577.775 501.132 577.642 502.169C577.508 503.207 576.978 504.152 576.163 504.808Z" fill="#F9A826"/>
<path d="M563.634 473.23C565.236 474.789 572.717 476.408 572.717 476.408C572.717 476.408 570.89 468.979 569.253 467.421C568.476 466.708 567.452 466.327 566.398 466.358C565.345 466.388 564.344 466.828 563.61 467.584C562.875 468.34 562.464 469.353 562.464 470.407C562.463 471.461 562.874 472.474 563.608 473.23H563.634Z" fill="#F9A826"/>
<path d="M559.391 491.95C561.391 492.954 569.002 492.262 569.002 492.262C569.002 492.262 565.037 485.725 563.037 484.72C562.077 484.237 560.964 484.154 559.943 484.491C558.923 484.828 558.078 485.557 557.595 486.517C557.111 487.477 557.029 488.589 557.366 489.61C557.703 490.63 558.431 491.475 559.391 491.959V491.95Z" fill="#F9A826"/>
<path d="M557.763 510.73C559.564 512.064 567.184 512.661 567.184 512.661C567.184 512.661 564.378 505.544 562.577 504.219C561.712 503.632 560.652 503.402 559.621 503.579C558.59 503.755 557.667 504.323 557.045 505.164C556.423 506.005 556.15 507.054 556.284 508.092C556.418 509.129 556.948 510.075 557.763 510.73Z" fill="#F9A826"/>
<path d="M557.131 520.246C557.131 520.246 566.959 518.281 569.574 515.657C572.188 513.033 583.981 508.453 585.297 511.726C586.614 514.999 602.987 526.134 591.843 528.099C580.7 530.065 565.643 530.697 562.404 529.407C559.166 528.117 557.131 520.246 557.131 520.246Z" fill="#A8A8A8"/>
<path opacity="0.2" d="M591.852 526.913C580.717 528.878 565.651 529.511 562.413 528.22C559.919 527.225 558.188 522.428 557.504 520.203L557.175 520.272C557.175 520.272 559.14 528.134 562.413 529.441C565.686 530.749 580.752 530.099 591.852 528.134C595.064 527.562 595.982 526.238 595.636 524.549C595.359 525.623 594.242 526.471 591.852 526.913Z" fill="black"/>
<path d="M720.058 581.86C720.058 581.86 749.869 575.894 757.826 567.946C765.784 559.997 801.552 546.083 805.526 556.023C809.5 565.963 859.209 599.748 825.441 605.714C791.673 611.68 745.938 613.663 735.998 609.688C726.058 605.714 720.058 581.86 720.058 581.86Z" fill="#A8A8A8"/>
<path opacity="0.2" d="M825.406 602.017C791.638 607.983 745.904 609.965 735.964 605.991C728.396 602.961 723.132 588.414 721.054 581.652L720.058 581.86C720.058 581.86 726.024 605.714 735.955 609.688C745.886 613.663 791.612 611.68 825.397 605.714C835.156 603.982 837.944 599.948 836.887 594.839C836.065 598.173 832.662 600.744 825.406 602.017Z" fill="black"/>
<path d="M921.836 412.448C921.726 416.006 920.612 419.461 918.624 422.414C916.62 419.471 915.489 416.022 915.36 412.465C915.36 406.967 916.78 402.508 918.572 402.499C920.364 402.49 921.819 406.949 921.836 412.448Z" fill="#F9A826"/>
<path d="M677.415 407.616C677.295 411.174 676.173 414.626 674.177 417.573C672.181 414.626 671.058 411.174 670.938 407.616C670.938 402.118 672.384 397.659 674.177 397.659C675.969 397.659 677.415 402.118 677.415 407.616Z" fill="#F9A826"/>
<path d="M943.803 505.734C945.799 508.682 946.921 512.134 947.041 515.691C943.693 514.482 940.754 512.351 938.564 509.544C935.326 505.094 933.88 500.634 935.326 499.587C936.772 498.539 940.573 501.292 943.803 505.734Z" fill="#F9A826"/>
<path d="M840.368 453.602C840.248 457.159 839.126 460.611 837.13 463.559C835.134 460.611 834.011 457.159 833.892 453.602C833.892 448.103 835.338 443.644 837.13 443.644C838.922 443.644 840.368 448.121 840.368 453.602Z" fill="#F9A826"/>
<path d="M779.863 420.526C779.743 424.084 778.62 427.536 776.624 430.483C774.628 427.536 773.506 424.084 773.386 420.526C773.386 415.028 774.832 410.569 776.624 410.569C778.417 410.569 779.863 415.028 779.863 420.526Z" fill="#F9A826"/>
<path d="M742.328 440.692C743.993 443.839 744.734 447.393 744.467 450.943C741.257 449.383 738.555 446.945 736.674 443.913C733.938 439.142 732.985 434.553 734.535 433.661C736.085 432.769 739.601 435.921 742.328 440.692Z" fill="#F9A826"/>
<path d="M714.283 532.16C711.606 534.507 708.319 536.05 704.802 536.61C705.588 533.14 707.338 529.961 709.85 527.441C713.859 523.683 718.11 521.692 719.331 522.991C720.552 524.289 718.292 528.402 714.283 532.16Z" fill="#F9A826"/>
<path opacity="0.1" d="M714.283 532.16C711.606 534.507 708.319 536.05 704.802 536.61C705.588 533.14 707.338 529.961 709.85 527.441C713.859 523.683 718.11 521.692 719.331 522.991C720.552 524.289 718.292 528.402 714.283 532.16Z" fill="black"/>
<path d="M773.17 526.515C770.492 528.862 767.205 530.405 763.688 530.965C764.474 527.494 766.224 524.316 768.736 521.796C772.745 518.038 776.997 516.047 778.217 517.345C779.438 518.644 777.178 522.748 773.17 526.515Z" fill="#F9A826"/>
<path opacity="0.1" d="M773.17 526.515C770.492 528.862 767.205 530.405 763.688 530.965C764.474 527.494 766.224 524.316 768.736 521.796C772.745 518.038 776.997 516.047 778.217 517.345C779.438 518.644 777.178 522.748 773.17 526.515Z" fill="black"/>
<path d="M784.46 586.206C781.783 588.554 778.496 590.097 774.979 590.657C775.763 587.176 777.516 583.988 780.036 581.462C784.045 577.704 788.296 575.712 789.517 577.011C790.738 578.31 788.478 582.44 784.46 586.206Z" fill="#F9A826"/>
<path opacity="0.1" d="M784.46 586.206C781.783 588.554 778.496 590.097 774.979 590.657C775.763 587.176 777.516 583.988 780.036 581.462C784.045 577.704 788.296 575.712 789.517 577.011C790.738 578.31 788.478 582.44 784.46 586.206Z" fill="black"/>
<path d="M78.3334 490.781C91.6068 510.375 87.3728 580.527 87.3728 580.527C87.3728 580.527 20.6591 558.439 7.38561 538.853C1.01201 529.444 -1.36266 517.888 0.783978 506.728C2.93062 495.567 9.42274 485.717 18.8321 479.343C28.2415 472.97 39.7975 470.595 50.9577 472.742C62.118 474.888 71.9684 481.381 78.342 490.79L78.3334 490.781Z" fill="#F9A826"/>
<path opacity="0.1" d="M78.3334 490.781C91.6068 510.375 87.3728 580.527 87.3728 580.527C87.3728 580.527 20.6591 558.439 7.38561 538.853C1.01201 529.444 -1.36266 517.888 0.783978 506.728C2.93062 495.567 9.42274 485.717 18.8321 479.343C28.2415 472.97 39.7975 470.595 50.9577 472.742C62.118 474.888 71.9684 481.381 78.342 490.79L78.3334 490.781Z" fill="black"/>
<path d="M19.0833 479.386C19.0833 479.386 69.0774 517.986 87.6326 580.596" stroke="#535461" stroke-miterlimit="10"/>
<path d="M100.222 527.407C100.222 527.407 64.7224 521.346 88.9662 580.145C88.9662 580.145 113.634 570.742 115.556 547.347C115.938 542.795 114.637 538.262 111.901 534.604C109.164 530.947 105.182 528.42 100.707 527.502L100.222 527.407Z" fill="#F9A826"/>
<path d="M100.742 527.346C100.742 527.346 107.504 559.867 89.0007 580.163" stroke="#535461" stroke-miterlimit="10"/>
<path d="M873.323 581.973C873.323 581.973 888.137 579.029 892.086 575.106C896.034 571.184 913.818 564.318 915.793 569.219C917.767 574.119 942.461 590.795 925.672 593.731C908.883 596.666 886.163 597.653 881.228 595.696C876.292 593.739 873.323 581.973 873.323 581.973Z" fill="#A8A8A8"/>
<path opacity="0.2" d="M925.698 591.921C908.909 594.865 886.189 595.843 881.254 593.887C877.496 592.389 874.881 585.228 873.842 581.877L873.348 581.981C873.348 581.981 876.31 593.748 881.254 595.714C886.198 597.679 908.909 596.692 925.698 593.748C930.546 592.882 931.932 590.908 931.412 588.38C930.971 590.016 929.282 591.289 925.698 591.921Z" fill="black"/>
<path d="M813.856 393.797C862.742 393.797 902.372 354.167 902.372 305.281C902.372 256.396 862.742 216.766 813.856 216.766C764.97 216.766 725.34 256.396 725.34 305.281C725.34 354.167 764.97 393.797 813.856 393.797Z" fill="#F9A826"/>
<path d="M719.721 369.614C768.607 369.614 808.237 329.984 808.237 281.098C808.237 232.212 768.607 192.582 719.721 192.582C670.835 192.582 631.205 232.212 631.205 281.098C631.205 329.984 670.835 369.614 719.721 369.614Z" fill="#F9A826"/>
<path d="M616.096 370.48C664.982 370.48 704.612 330.85 704.612 281.964C704.612 233.078 664.982 193.448 616.096 193.448C567.21 193.448 527.58 233.078 527.58 281.964C527.58 330.85 567.21 370.48 616.096 370.48Z" fill="#F9A826"/>
<path d="M582.414 393.797C631.3 393.797 670.93 354.167 670.93 305.281C670.93 256.396 631.3 216.766 582.414 216.766C533.528 216.766 493.898 256.396 493.898 305.281C493.898 354.167 533.528 393.797 582.414 393.797Z" fill="#F9A826"/>
<path d="M525.415 401.573C574.301 401.573 613.931 361.943 613.931 313.057C613.931 264.171 574.301 224.541 525.415 224.541C476.529 224.541 436.899 264.171 436.899 313.057C436.899 361.943 476.529 401.573 525.415 401.573Z" fill="#F9A826"/>
<path d="M502.098 331.621C550.984 331.621 590.614 291.991 590.614 243.105C590.614 194.219 550.984 154.589 502.098 154.589C453.212 154.589 413.582 194.219 413.582 243.105C413.582 291.991 453.212 331.621 502.098 331.621Z" fill="#F9A826"/>
<path d="M528.004 250.438C576.89 250.438 616.52 210.809 616.52 161.923C616.52 113.037 576.89 73.4067 528.004 73.4067C479.118 73.4067 439.488 113.037 439.488 161.923C439.488 210.809 479.118 250.438 528.004 250.438Z" fill="#F9A826"/>
<path d="M577.228 250.438C626.113 250.438 665.743 210.809 665.743 161.923C665.743 113.037 626.113 73.4067 577.228 73.4067C528.342 73.4067 488.712 113.037 488.712 161.923C488.712 210.809 528.342 250.438 577.228 250.438Z" fill="#F9A826"/>
<path d="M605.731 214.168C654.617 214.168 694.247 174.538 694.247 125.652C694.247 76.7661 654.617 37.1362 605.731 37.1362C556.846 37.1362 517.216 76.7661 517.216 125.652C517.216 174.538 556.846 214.168 605.731 214.168Z" fill="#F9A826"/>
<path d="M678.273 253.893C727.159 253.893 766.789 214.263 766.789 165.377C766.789 116.491 727.159 76.8616 678.273 76.8616C629.387 76.8616 589.757 116.491 589.757 165.377C589.757 214.263 629.387 253.893 678.273 253.893Z" fill="#F9A826"/>
<path d="M847.537 331.621C896.423 331.621 936.053 291.991 936.053 243.105C936.053 194.219 896.423 154.589 847.537 154.589C798.651 154.589 759.021 194.219 759.021 243.105C759.021 291.991 798.651 331.621 847.537 331.621Z" fill="#F9A826"/>
<path d="M796.582 287.575C845.468 287.575 885.098 247.945 885.098 199.059C885.098 150.173 845.468 110.543 796.582 110.543C747.696 110.543 708.066 150.173 708.066 199.059C708.066 247.945 747.696 287.575 796.582 287.575Z" fill="#F9A826"/>
<path d="M763.766 243.529C812.652 243.529 852.282 203.899 852.282 155.013C852.282 106.127 812.652 66.4973 763.766 66.4973C714.88 66.4973 675.25 106.127 675.25 155.013C675.25 203.899 714.88 243.529 763.766 243.529Z" fill="#F9A826"/>
<path d="M701.59 177.032C750.476 177.032 790.105 137.402 790.105 88.5159C790.105 39.6299 750.476 0 701.59 0C652.704 0 613.074 39.6299 613.074 88.5159C613.074 137.402 652.704 177.032 701.59 177.032Z" fill="#F9A826"/>
<path d="M817.311 250.438C866.196 250.438 905.826 210.809 905.826 161.923C905.826 113.037 866.196 73.4067 817.311 73.4067C768.425 73.4067 728.795 113.037 728.795 161.923C728.795 210.809 768.425 250.438 817.311 250.438Z" fill="#F9A826"/>
<path opacity="0.1" d="M901.982 175.785C901.982 175.785 819.545 136.692 769.663 205.977L901.982 175.785Z" fill="black"/>
<path opacity="0.1" d="M685.45 96.5855C685.45 96.5855 594.259 93.8321 576.353 177.3L685.45 96.5855Z" fill="black"/>
<path opacity="0.1" d="M572.093 277.687C572.093 277.687 489.656 238.585 439.774 307.853L572.093 277.687Z" fill="black"/>
<path d="M211.302 498.34C211.302 498.34 216.056 504.557 209.103 513.925C202.15 523.294 196.418 531.242 198.713 537.095C198.713 537.095 209.198 519.657 217.761 519.415C226.325 519.172 220.688 508.825 211.302 498.34Z" fill="#F9A826"/>
<path opacity="0.1" d="M211.302 498.34C211.716 498.94 212.042 499.596 212.272 500.288C220.601 510.072 225.043 519.207 217.034 519.441C209.579 519.657 200.626 532.991 198.487 536.359C198.557 536.621 198.64 536.878 198.738 537.13C198.738 537.13 209.224 519.692 217.787 519.449C226.35 519.207 220.688 508.825 211.302 498.34Z" fill="black"/>
<path d="M220.142 506.271C220.142 508.462 219.9 510.237 219.597 510.237C219.294 510.237 219.052 508.505 219.052 506.271C219.052 504.037 219.355 505.111 219.658 505.111C219.961 505.111 220.142 504.081 220.142 506.271Z" fill="#FFD037"/>
<path d="M223.173 508.877C221.251 509.925 219.571 510.557 219.433 510.289C219.294 510.02 220.731 508.955 222.654 507.907C224.576 506.86 223.814 507.622 223.961 507.907C224.108 508.193 225.095 507.864 223.173 508.877Z" fill="#FFD037"/>
<path d="M186.175 498.34C186.175 498.34 181.422 504.557 188.374 513.925C195.327 523.294 201.059 531.242 198.765 537.095C198.765 537.095 188.279 519.657 179.716 519.415C171.153 519.172 176.781 508.825 186.175 498.34Z" fill="#F9A826"/>
<path opacity="0.1" d="M186.175 498.34C185.761 498.94 185.435 499.596 185.205 500.288C176.876 510.072 172.434 519.207 180.443 519.441C187.898 519.657 196.851 532.991 198.99 536.359C198.921 536.621 198.837 536.878 198.739 537.13C198.739 537.13 188.253 519.692 179.69 519.449C171.127 519.207 176.781 508.825 186.175 498.34Z" fill="black"/>
<path d="M177.335 506.271C177.335 508.462 177.577 510.237 177.88 510.237C178.183 510.237 178.426 508.505 178.426 506.271C178.426 504.037 178.123 505.111 177.82 505.111C177.517 505.111 177.335 504.081 177.335 506.271Z" fill="#FFD037"/>
<path d="M174.296 508.877C176.218 509.925 177.898 510.557 178.036 510.289C178.175 510.02 176.737 508.955 174.815 507.907C172.893 506.86 173.655 507.622 173.508 507.907C173.361 508.193 172.408 507.864 174.296 508.877Z" fill="#FFD037"/>
<path d="M178.85 536.308C178.85 536.308 192.15 535.901 196.167 533.043C200.185 530.186 216.627 526.783 217.614 531.355C218.601 535.927 237.598 554.118 222.584 554.239C207.57 554.361 187.699 551.902 183.699 549.46C179.699 547.018 178.85 536.308 178.85 536.308Z" fill="#A8A8A8"/>
<path opacity="0.2" d="M222.844 552.655C207.83 552.776 187.959 550.317 183.959 547.875C180.911 546.022 179.699 539.364 179.292 536.29H178.85C178.85 536.29 179.716 547.018 183.69 549.451C187.664 551.884 207.562 554.352 222.576 554.23C226.905 554.23 228.403 552.655 228.325 550.369C227.727 551.763 226.091 552.629 222.844 552.655Z" fill="black"/>
<path d="M103.521 621.931C105.108 620.638 106.265 618.892 106.837 616.927C107.27 614.935 106.422 612.554 104.517 611.827C102.387 611.013 100.11 612.485 98.3867 613.983C96.6636 615.481 94.6808 617.178 92.421 616.857C93.5825 615.805 94.4514 614.469 94.943 612.98C95.4347 611.492 95.5323 609.901 95.2263 608.363C95.1286 607.726 94.8592 607.128 94.4471 606.632C93.2608 605.368 91.1222 605.913 89.7022 606.909C85.1998 610.078 83.9443 616.191 83.9183 621.698C83.4681 619.715 83.849 617.645 83.8317 615.637C83.8144 613.628 83.2603 611.307 81.5459 610.251C80.4828 609.68 79.2889 609.396 78.0825 609.428C76.0564 609.351 73.8052 609.558 72.4198 611.039C70.6881 612.875 71.147 615.966 72.6449 617.966C74.1429 619.966 76.4114 621.256 78.5068 622.659C80.1861 623.657 81.6186 625.021 82.6975 626.65C82.8244 626.876 82.9288 627.114 83.0092 627.36H95.6939C98.5359 625.912 101.169 624.086 103.521 621.931Z" fill="#F9A826"/>
<path d="M891.445 634.053C893.032 632.76 894.188 631.014 894.761 629.049C895.194 627.057 894.345 624.676 892.44 623.949C890.31 623.135 888.033 624.607 886.31 626.105C884.587 627.603 882.604 629.3 880.345 628.98C881.506 627.927 882.375 626.591 882.867 625.102C883.358 623.614 883.456 622.023 883.15 620.486C883.052 619.848 882.783 619.25 882.371 618.754C881.184 617.49 879.046 618.035 877.626 619.031C873.123 622.2 871.868 628.313 871.842 633.82C871.392 631.837 871.773 629.767 871.755 627.759C871.738 625.75 871.184 623.429 869.469 622.373C868.406 621.802 867.213 621.518 866.006 621.551C863.98 621.473 861.729 621.68 860.343 623.161C858.612 624.997 859.071 628.088 860.569 630.088C862.066 632.088 864.335 633.378 866.43 634.781C868.11 635.779 869.542 637.144 870.621 638.772C870.748 638.998 870.852 639.236 870.933 639.482H883.617C886.46 638.034 889.092 636.208 891.445 634.053Z" fill="#F9A826"/>
<path d="M596.302 629.36C596.302 629.36 595.437 642.92 597.168 645.171C597.168 645.171 557.408 652.401 552.438 650.141C547.468 647.881 549.728 644.27 552.438 642.911C555.149 641.551 568.708 636.582 570.509 627.1C570.509 627.1 564.638 624.39 583.609 627.966C602.58 631.542 596.302 629.36 596.302 629.36Z" fill="#DC9BA3"/>
<path opacity="0.05" d="M596.302 629.36C596.302 629.36 595.437 642.92 597.168 645.171C597.168 645.171 557.408 652.401 552.438 650.141C547.468 647.881 549.728 644.27 552.438 642.911C555.149 641.551 568.708 636.582 570.509 627.1C570.509 627.1 564.638 624.39 583.609 627.966C602.58 631.542 596.302 629.36 596.302 629.36Z" fill="black"/>
<path d="M751.281 497.872C751.281 497.872 746.311 506.003 749.471 521.822C752.632 537.641 741.341 537.632 741.341 537.632H718.76L711.08 517.718L721.92 518.583C721.92 518.583 729.15 516.774 725.99 500.054L751.281 497.872Z" fill="#FFD2D9"/>
<path d="M683.511 478.902C686.974 489.906 691.304 503.31 693.615 510.453L695.26 515.501L710.17 500.141C710.17 500.141 709.512 498.617 708.534 496.487C706.352 491.759 702.551 484.045 700.681 483.421C700.681 483.421 721.461 482.062 727.79 487.032C734.12 492.002 732.31 473.473 732.31 473.473C732.31 473.473 720.11 472.607 715.591 469.862C711.071 467.117 686.671 464.442 686.671 464.442C686.671 464.442 678.541 463.082 683.511 478.902Z" fill="#FFD2D9"/>
<path d="M547.953 611.766L551.113 634.807L559.244 633.941C559.244 633.941 559.737 633.473 560.569 632.729C562.759 630.798 567.322 627.014 571.686 624.936C573.163 624.182 574.765 623.703 576.414 623.525L567.374 609.965C565.176 610.79 562.922 611.458 560.629 611.965C558.248 612.526 555.811 612.816 553.365 612.831C551.506 612.859 549.662 612.497 547.953 611.766Z" fill="#FFD2D9"/>
<path d="M570.543 628.01C574.613 631.62 593.133 623.94 596.302 635.69L599.211 624.546L608.173 590.259L609.403 585.54L616.866 585.22L702.525 581.566L707.373 581.358L709.971 581.245L706.577 579.565L683.987 568.37C683.987 568.37 675.848 567.799 664.626 566.257C647.612 563.928 623.507 559.331 609.896 551.2C587.306 537.641 578.725 583.28 578.725 583.28C578.725 583.28 575.262 594.856 572.665 606.268C571.472 611.191 570.561 616.178 569.937 621.204C569.547 624.694 569.669 627.222 570.543 628.01Z" fill="#E9E9EF"/>
<path opacity="0.05" d="M570.544 628.01C574.613 631.62 593.134 623.94 596.303 635.69L599.212 624.546L608.173 590.259L609.403 585.54L617.1 585.064L699.858 579.972L704.967 579.652L706.543 579.557L708.577 579.427L683.953 568.353C683.953 568.353 675.814 567.781 664.592 566.24C647.578 563.911 623.473 559.313 609.862 551.183C587.272 537.624 578.691 583.263 578.691 583.263C578.691 583.263 575.228 594.839 572.63 606.251C571.438 611.174 570.527 616.16 569.903 621.187C569.548 624.694 569.669 627.222 570.544 628.01Z" fill="black"/>
<path opacity="0.1" d="M560.638 611.931L568.543 621.204L571.695 624.901C573.172 624.147 574.774 623.669 576.422 623.49L567.383 609.931C565.184 610.755 562.93 611.424 560.638 611.931Z" fill="black"/>
<path d="M561.062 610.84L569.903 621.23L574.163 626.226V627.586C579.358 628.789 595.627 625.36 599.212 624.572L599.913 624.417C610.303 624.867 648.712 602.277 648.712 602.277C648.712 602.277 690.732 609.507 711.054 607.697C722.405 606.684 725.591 602.58 726.189 599.142C726.451 597.444 726.216 595.706 725.513 594.138L707.331 581.367L704.924 579.635L701.079 576.925C701.079 576.925 694.395 575.409 685.909 573.539C672.645 570.613 654.973 566.812 651.397 566.543C645.526 566.093 630.616 571.063 622.027 581.003C620.553 582.554 618.889 583.913 617.074 585.046L616.841 585.202C614.425 586.804 611.455 588.501 608.182 590.242C597.246 595.999 582.665 602.19 572.639 606.251C565.781 609.048 561.062 610.84 561.062 610.84Z" fill="#E9E9EF"/>
<path opacity="0.1" d="M547.953 611.766L551.113 634.807L559.244 633.941C559.244 633.941 559.737 633.473 560.569 632.729C558.768 632.729 555.798 632.252 555.174 628.521C555.174 628.521 558.309 617.568 553.365 612.849C551.505 612.871 549.661 612.503 547.953 611.766Z" fill="black"/>
<path d="M554.248 628.46C554.248 628.46 558.768 612.649 548.377 610.84L531.208 617.619L511.293 618.979C511.293 618.979 506.098 627.455 514.419 636.963C516.707 639.54 519.493 641.628 522.608 643.101C525.724 644.574 529.106 645.402 532.55 645.534L554.248 646.53L561.062 632.547C561.062 632.547 555.183 633.88 554.248 628.46Z" fill="#DC9BA3"/>
<path opacity="0.1" d="M664.601 566.257C666.878 566.924 676.298 569.72 685.944 573.556C690.712 575.394 695.357 577.537 699.849 579.972C700.784 580.5 701.676 581.028 702.516 581.557C704.716 582.85 706.685 584.5 708.343 586.44C713.919 593.653 722.11 597.54 726.189 599.125C726.451 597.426 726.216 595.688 725.513 594.12L707.33 581.349L709.928 581.236L706.534 579.557L708.568 579.427L683.944 568.352C683.944 568.352 675.822 567.798 664.601 566.257Z" fill="black"/>
<path opacity="0.1" d="M693.65 510.462L695.295 515.51L710.205 500.15C710.205 500.15 709.547 498.626 708.568 496.496C706.638 500.47 697.641 507.449 693.65 510.462Z" fill="black"/>
<path d="M747.41 517.951C747.945 516.421 748.336 514.844 748.579 513.241L768 519.986C768 519.986 781.326 530.151 779.975 552.291C779.975 552.291 763.524 546.23 756.251 553.417L756.103 554.689C754.574 567.324 748.983 579.119 740.172 588.302C736.579 592.077 733.193 596.328 731.401 600.424C731.401 600.424 718.751 596.813 711.071 586.864C703.391 576.916 666.808 566.56 666.808 566.56C666.808 566.56 686.238 567.01 688.948 560.231C691.658 553.451 700.698 538.992 697.537 527.701C694.377 516.41 692.567 512.791 692.567 512.791C692.567 512.791 711.097 499.691 709.737 495.621L721.487 509.18L726.907 510.99C726.479 512.04 726.261 513.164 726.266 514.297C725.955 526.567 743.289 529.51 747.41 517.951Z" fill="#CEDAD5"/>
<path opacity="0.1" d="M726.664 506.072C726.528 504.384 726.299 502.705 725.98 501.041L751.281 498.781C751.281 498.781 749.549 500.297 748.77 505.942C745.8 507.674 742.336 510.081 738.631 510.081C734.311 510.086 730.109 508.678 726.664 506.072Z" fill="black"/>
<path d="M738.406 509.397C749.385 509.397 758.286 500.496 758.286 489.517C758.286 478.537 749.385 469.637 738.406 469.637C727.426 469.637 718.526 478.537 718.526 489.517C718.526 500.496 727.426 509.397 738.406 509.397Z" fill="#FFD2D9"/>
<path d="M753.09 494.712H750.38V487.032L747.67 478.902C747.67 478.902 734.111 472.572 727.756 473.932L722.82 478.425C722.82 478.425 721.461 467.585 729.6 463.516C737.739 459.446 752.19 461.256 755.809 464.381C759.428 467.507 765.334 472.971 760.779 487.881L759.454 491.552C759.454 491.552 753.991 489.742 753.09 494.712Z" fill="#844F6E"/>
<g opacity="0.05">
<path d="M717.972 505.146L716.491 504.652L709.668 496.782C709.802 496.409 709.817 496.003 709.711 495.621L717.972 505.146Z" fill="black"/>
<path d="M727.479 519.727C725.548 518.904 723.916 517.507 722.806 515.726C721.695 513.945 721.159 511.865 721.27 509.769C721.27 509.501 721.27 509.25 721.27 509.007L721.409 509.172L726.829 510.981C726.401 512.031 726.183 513.155 726.188 514.289C726.134 516.183 726.579 518.059 727.479 519.727Z" fill="black"/>
<path d="M674.774 566.188C686.1 570.128 701.434 576.336 706.101 582.371L706.447 582.804C694.04 574.292 666.791 566.552 666.791 566.552C669.457 566.582 672.122 566.46 674.774 566.188Z" fill="black"/>
<path d="M726.431 595.93C728.223 591.852 731.626 587.592 735.202 583.808C744.014 574.626 749.605 562.83 751.134 550.196L751.281 548.923C758.511 541.693 775.005 547.797 775.005 547.797C775.871 533.753 770.814 524.532 767.013 519.666L768.009 520.012C768.009 520.012 781.335 530.177 779.984 552.317C779.984 552.317 763.533 546.256 756.26 553.443L756.112 554.716C754.583 567.35 748.992 579.146 740.181 588.328C736.587 592.103 733.202 596.354 731.41 600.45C731.41 600.45 720.396 597.298 712.69 588.813C716.843 591.932 721.487 594.337 726.431 595.93Z" fill="black"/>
</g>
<path d="M731.401 543.061C731.401 543.061 753.047 574.232 764.381 583.271C775.715 592.311 778.841 579.202 778.841 579.202V550.291L758.926 548.031L758.71 550.776L758.467 553.91L739.938 533.996C739.938 533.996 721.409 517.276 717.798 527.216C714.188 537.156 731.401 543.061 731.401 543.061Z" fill="#FFD2D9"/>
<path opacity="0.1" d="M758.753 550.776C761.463 552.354 764.338 553.632 767.325 554.586C771.594 555.902 776.486 554.516 778.85 553.668V550.291L758.935 548.031L758.753 550.776Z" fill="black"/>
<path d="M779.074 547.356L780.235 552.196C780.235 552.196 773.169 555.486 767.299 553.685C763.34 552.343 759.56 550.523 756.043 548.265C755.177 547.815 759.653 542.845 759.653 542.845L779.074 547.356Z" fill="#CEDAD5"/>
<path opacity="0.1" d="M648.937 602.476C645.925 600.163 642.572 598.331 638.997 597.047C635.589 595.883 632.377 594.207 629.473 592.077" fill="black"/>
<path opacity="0.2" d="M511.354 618.97L512.09 618.918C511.016 621.646 509.492 628.313 515.83 635.594C518.112 638.163 520.888 640.245 523.993 641.717C527.098 643.188 530.468 644.018 533.901 644.158L554.941 645.145L554.265 646.53L532.55 645.534C529.117 645.395 525.747 644.565 522.643 643.093C519.538 641.622 516.761 639.54 514.48 636.971C506.159 627.447 511.354 618.97 511.354 618.97Z" fill="white"/>
<path opacity="0.05" d="M588.078 638.339C588.014 638.611 587.942 638.88 587.861 639.146C587.419 638.894 586.786 638.409 588.078 638.339Z" fill="#00FF00"/>
<path opacity="0.2" d="M552.516 648.79C557.149 650.894 591.973 644.764 596.675 643.915C596.77 644.365 596.952 644.791 597.212 645.171C597.212 645.171 557.452 652.401 552.482 650.141C549.884 648.981 549.287 647.457 549.633 646.071C549.919 647.041 550.733 648.002 552.516 648.79Z" fill="white"/>
<path opacity="0.1" d="M725.773 480.019C720.885 477.063 716.916 472.806 714.309 467.723C713.943 467.163 713.792 466.49 713.885 465.827C714.205 464.598 715.807 464.381 716.967 463.853C719.123 462.866 720.032 460.39 721.443 458.468C722.655 456.886 724.281 455.67 726.141 454.956C728.001 454.243 730.022 454.058 731.981 454.424C734.042 454.84 735.946 455.861 738.042 456.156C742.527 456.814 747.41 454.095 751.436 456.156C753.272 457.1 754.519 458.874 755.61 460.624C758.355 465.013 761.792 469.68 759.298 474.806C757.87 477.75 755.584 480.192 752.372 481.049C749.159 481.906 745.445 481.187 742.172 480.841C739.488 480.547 736.665 479.975 733.964 480.218C730.777 480.547 728.794 481.837 725.773 480.019Z" fill="black"/>
<path d="M725.773 479.109C720.885 476.154 716.916 471.897 714.309 466.814C713.943 466.254 713.792 465.581 713.885 464.918C714.205 463.689 715.807 463.472 716.967 462.944C719.123 461.957 720.032 459.481 721.443 457.558C722.655 455.976 724.281 454.761 726.141 454.047C728.001 453.334 730.022 453.149 731.981 453.515C734.042 453.93 735.946 454.952 738.042 455.247C742.527 455.905 747.41 453.186 751.436 455.247C753.272 456.19 754.519 457.965 755.61 459.714C758.355 464.104 761.792 468.771 759.298 473.897C757.87 476.841 755.584 479.283 752.372 480.14C749.159 480.997 745.445 480.278 742.172 479.932C739.488 479.638 736.665 479.066 733.964 479.309C730.777 479.638 728.794 480.936 725.773 479.109Z" fill="#844F6E"/>
<path d="M353.319 586.752C353.319 596.068 353.838 602.225 353.838 602.225C353.838 602.225 367.146 602.969 366.774 615.308C366.402 627.646 418.5 630.261 418.5 630.261C418.5 630.261 418.5 630.131 418.5 629.889C418.5 629.889 418.5 628.893 418.5 627.092C423.453 627.828 428.752 628.425 431.722 628.139C431.522 629.101 431.289 630.114 431.064 631.014C430.821 631.257 426.024 636.105 426.18 641.266C426.094 643.863 427.271 646.53 431.081 648.747C442.077 655.171 476.322 651.595 476.322 651.595C481.517 648.184 483.248 645.283 483.153 642.876C483.318 639.326 479.776 636.815 476.529 635.196C474.019 633.945 471.143 633.637 468.425 634.33C464.758 635.143 460.993 635.42 457.247 635.153C457.392 634.408 457.586 633.673 457.827 632.954C461.342 633.949 463.767 634.685 463.767 634.685C463.767 634.685 482.019 624.971 474.417 609.273C473.218 607.095 471.413 605.311 469.222 604.138C475.083 594.034 480.651 582.137 480.097 574.136C479.17 560.785 452.658 563.694 442.727 565.261L423.583 546.481C423.583 532.628 424.007 516.722 422.717 513.276C420.431 507.293 421.193 508.081 419.678 505.431L419.617 505.336C418.751 503.933 416.396 501.708 415.79 502.011C415.531 499.259 415.569 496.487 415.902 493.742C420.614 492.201 424.721 489.216 427.64 485.209C430.559 481.202 432.141 476.378 432.163 471.421C432.166 467.711 431.275 464.055 429.566 460.762L429.825 460.649L427.314 448.302C427.225 448.042 427.188 447.765 427.208 447.49C427.227 447.215 427.301 446.946 427.427 446.701C427.687 446.354 428.128 446.25 428.466 446.008C428.848 445.638 429.096 445.15 429.169 444.623C429.243 444.096 429.139 443.56 428.873 443.099C428.639 442.64 428.319 442.231 427.929 441.895C425.816 439.497 421.323 440.354 418.561 439.999C414.82 439.523 410.898 438.83 407.357 440.683C406.594 441.156 405.798 441.572 404.975 441.93C403.848 442.236 402.677 442.347 401.512 442.259C399.404 442.257 397.3 442.445 395.226 442.822C392.525 441.843 389.347 442.709 386.845 444.207C383.982 445.96 381.651 448.459 380.101 451.437C378.551 454.415 377.841 457.758 378.048 461.108C378.266 463.203 378.669 465.275 379.251 467.299L383.883 485.352C384.179 486.86 384.767 488.296 385.615 489.578C385.82 489.849 386.052 490.098 386.308 490.322C386.749 490.854 387.321 491.263 387.967 491.509C388.614 491.755 389.313 491.829 389.996 491.725C390.173 491.683 390.344 491.622 390.507 491.543C390.35 493.443 389.981 495.319 389.407 497.136C384.108 498.678 376.42 504.063 367.19 519.648C355.345 539.615 353.371 569.054 353.319 586.752Z" fill="url(#paint0_linear_14_8)"/>
<path d="M399.373 612.719H451.186V575.608H399.373V612.719Z" fill="#5F5D7E"/>
<path d="M438.328 567.522C438.328 567.522 476.91 559.434 478.01 575.609C479.11 591.783 455.229 624.096 455.229 624.096L433.583 619.689L439.826 594.701C439.826 594.701 415.21 589.185 413.738 588.821C412.266 588.458 438.328 567.522 438.328 567.522Z" fill="#5F5D7E"/>
<path opacity="0.1" d="M438.328 567.522C438.328 567.522 476.91 559.434 478.01 575.609C479.11 591.783 455.229 624.096 455.229 624.096L433.583 619.689L439.826 594.701C439.826 594.701 415.21 589.185 413.738 588.821C412.266 588.458 438.328 567.522 438.328 567.522Z" fill="black"/>
<path d="M458.545 628.521C458.545 628.521 454.874 635.499 455.948 638.443C457.022 641.387 429.86 634.4 429.86 634.4C429.86 634.4 432.068 625.949 431.695 624.875C431.323 623.802 458.545 628.521 458.545 628.521Z" fill="#5F5D7E"/>
<path d="M434.657 580.752L437.358 583.193L439.09 584.769C439.09 584.769 447.913 599.099 459.299 590.285C470.685 581.47 450.459 574.872 446.415 574.535C445.604 574.416 444.834 574.103 444.171 573.622C443.507 573.141 442.97 572.507 442.605 571.773C441.986 570.694 441.536 569.525 441.272 568.309L434.657 580.752Z" fill="#FDC2CC"/>
<path opacity="0.05" d="M434.657 580.752L437.358 583.193L439.09 584.769C439.09 584.769 447.913 599.099 459.299 590.285C470.685 581.47 450.459 574.872 446.415 574.535C445.604 574.416 444.834 574.103 444.171 573.622C443.507 573.141 442.97 572.507 442.605 571.773C441.986 570.694 441.536 569.525 441.272 568.309L434.657 580.752Z" fill="black"/>
<path opacity="0.1" d="M458.545 628.521C458.545 628.521 454.874 635.499 455.948 638.443C457.022 641.387 429.86 634.4 429.86 634.4C429.86 634.4 432.068 625.949 431.695 624.875C431.323 623.802 458.545 628.521 458.545 628.521Z" fill="black"/>
<path opacity="0.1" d="M434.657 580.752L437.358 583.193C437.358 578.483 440.484 574.154 442.623 571.721C442.003 570.642 441.553 569.473 441.289 568.257L434.657 580.752Z" fill="black"/>
<path d="M418.491 543.641L443.843 568.993C443.843 568.993 435.02 576.708 436.865 584.795L418.491 564.213V543.641Z" fill="#C4C8E2"/>
<path opacity="0.1" d="M418.673 543.641V564.222L421.617 567.521L430.354 577.305L437.047 584.803C435.211 576.716 444.025 569.002 444.025 569.002L418.673 543.641Z" fill="black"/>
<path d="M418.491 507.258C418.491 507.258 418.491 514.973 411.876 512.774C405.261 510.575 410.404 599.861 410.404 599.861C410.404 599.861 429.514 585.531 425.834 575.245C422.154 564.959 421.427 557.218 421.773 546.949C422.119 536.68 418.491 507.258 418.491 507.258Z" fill="#D39999"/>
<path d="M418.119 486.685C418.119 486.685 412.604 501.751 418.119 513.146C423.635 524.54 385.407 506.894 385.407 506.894C385.407 506.894 393.858 502.851 390.923 483.378L418.119 486.685Z" fill="#FDC2CC"/>
<path opacity="0.1" d="M421.427 555.399C421.2 559.437 421.2 563.484 421.427 567.521L430.163 577.305C428.884 574.573 427.438 571.921 425.834 569.366C424.474 567.262 424.171 558.871 424.102 549.295L420.898 546.092C421.236 551.261 421.427 555.399 421.427 555.399Z" fill="black"/>
<path d="M415.712 505.267C415.305 503.336 418.491 506.245 419.513 507.934L419.565 508.029C421.037 510.626 420.301 509.864 422.509 515.743C424.717 521.623 421.773 564.231 425.106 569.426C427.358 573.066 429.324 576.876 430.986 580.821L425.106 578.613C425.106 578.613 422.899 571.998 421.435 570.526C419.972 569.054 420.699 555.46 420.699 555.46C420.699 555.46 419.6 531.944 418.491 526.8C417.617 522.662 416.578 509.328 415.712 505.267Z" fill="#C4C8E2"/>
<path opacity="0.1" d="M415.712 505.267C415.305 503.336 418.491 506.245 419.513 507.934L419.565 508.029C421.037 510.626 420.301 509.864 422.509 515.743C424.717 521.623 421.773 564.231 425.106 569.426C427.358 573.066 429.324 576.876 430.986 580.821L425.106 578.613C425.106 578.613 422.899 571.998 421.435 570.526C419.972 569.054 420.699 555.46 420.699 555.46C420.699 555.46 419.6 531.944 418.491 526.8C417.617 522.662 416.578 509.328 415.712 505.267Z" fill="black"/>
<path d="M407.097 596.917C407.097 596.917 465.152 594.709 472.503 610.147C479.854 625.585 462.217 635.144 462.217 635.144C462.217 635.144 437.601 627.429 432.085 628.529C426.57 629.629 407.097 625.585 407.097 625.585V596.917Z" fill="#5F5D7E"/>
<path d="M439.436 587.367C439.436 587.367 452.666 580.016 460.018 584.769C467.369 589.523 466.633 602.407 456.346 602.77C446.06 603.134 440.545 596.891 440.545 596.891L439.436 587.367Z" fill="#FDC2CC"/>
<path d="M397.91 500.279C397.91 500.279 386.152 492.192 368.878 521.925C351.604 551.659 356.02 602.761 356.02 602.761C356.02 602.761 368.878 603.497 368.515 615.619C368.151 627.741 418.491 630.339 418.491 630.339C418.491 630.339 417.755 509.812 412.612 506.522C407.469 503.232 397.91 500.279 397.91 500.279Z" fill="#C4C8E2"/>
<path opacity="0.1" d="M397.858 522.203C399.932 523.697 401.62 525.664 402.782 527.941C403.944 530.218 404.548 532.738 404.542 535.294C404.603 546.299 404.871 570.015 405.988 574.5C407.46 580.379 429.505 588.094 440.899 587.73C440.899 587.73 446.415 598.017 439.8 600.225C433.185 602.432 392.767 600.225 392.767 600.225C392.767 600.225 376.965 582.223 376.601 566.456C376.238 550.689 374.004 533.017 376.601 529.71C378.723 526.913 387.598 514.964 397.858 522.203Z" fill="black"/>
<path d="M398.594 520.731C400.678 522.223 402.376 524.19 403.546 526.47C404.716 528.751 405.325 531.277 405.322 533.84C405.382 544.845 405.651 568.561 406.768 573.046C408.24 578.925 430.284 586.639 441.679 586.276C441.679 586.276 447.194 596.562 440.579 598.77C433.964 600.978 393.546 598.77 393.546 598.77C393.546 598.77 377.744 580.769 377.381 565.002C377.017 549.235 374.783 531.563 377.381 528.255C379.459 525.476 388.334 513.492 398.594 520.731Z" fill="#C4C8E2"/>
<path d="M474.547 635.586C479.82 638.184 485.932 643.535 474.347 651.665C474.347 651.665 441.281 655.336 430.622 648.721C419.963 642.106 430.622 631.447 430.622 631.447C430.622 631.447 455.013 637.932 466.719 634.763C469.341 634.073 472.125 634.366 474.547 635.586Z" fill="#4C4C56"/>
<path opacity="0.1" d="M474.547 636.331C479.82 638.842 485.932 643.933 474.347 651.717C474.347 651.717 441.281 655.232 430.622 648.903C419.963 642.573 430.622 632.382 430.622 632.382C430.622 632.382 455.013 638.582 466.719 635.56C469.338 634.895 472.108 635.167 474.547 636.331Z" fill="black"/>
<path opacity="0.1" d="M399.564 548.23C399.564 548.23 401.4 571.383 413.53 576.526L399.564 548.23Z" fill="black"/>
<path opacity="0.1" d="M417.755 489.257C416.683 492.443 415.955 495.735 415.582 499.076C413.262 499.855 409.868 497.898 407.279 497.898C400.542 497.898 398.62 490.365 394.421 485.776C394.421 483.733 390.957 488.504 390.559 485.958L417.755 489.257Z" fill="black"/>
<path d="M385.407 474.555C385.405 476.476 385.64 478.389 386.109 480.252L386.187 480.547C387.703 486.258 391.335 491.177 396.347 494.308C401.358 497.438 407.373 498.544 413.17 497.402C418.967 496.26 424.113 492.955 427.562 488.158C431.012 483.36 432.506 477.43 431.743 471.571C430.98 465.712 428.016 460.362 423.453 456.609C418.89 452.855 413.069 450.978 407.173 451.359C401.277 451.74 395.746 454.35 391.704 458.659C387.661 462.969 385.41 468.655 385.407 474.564V474.555Z" fill="#FDC2CC"/>
<path opacity="0.1" d="M368.887 522.324C371.287 518.097 374.035 514.077 377.104 510.306C374.636 513.55 372.383 516.951 370.359 520.489C353.085 550.256 357.501 601.324 357.501 601.324C357.501 601.324 370.359 602.06 369.995 614.182C369.666 625.066 410.179 628.252 418.483 628.789C418.483 630.036 418.483 630.711 418.483 630.711C418.483 630.711 368.142 628.114 368.506 615.992C368.869 603.87 356.012 603.134 356.012 603.134C356.012 603.134 351.639 552.092 368.887 522.324Z" fill="black"/>
<path opacity="0.1" d="M388.342 448.121C390.767 446.657 393.832 445.8 396.447 446.761C398.446 446.392 400.475 446.206 402.508 446.207C403.62 446.291 404.739 446.182 405.815 445.887C406.612 445.537 407.382 445.129 408.118 444.666C411.539 442.848 415.331 443.532 418.941 443.999C421.877 444.38 426.838 443.315 428.535 446.675C428.792 447.128 428.892 447.653 428.822 448.169C428.752 448.685 428.514 449.164 428.145 449.532C427.816 449.774 427.392 449.87 427.141 450.216C427.019 450.458 426.946 450.722 426.927 450.993C426.908 451.263 426.942 451.535 427.029 451.792L429.453 463.914C428.337 464.457 427.121 464.767 425.881 464.823C424.64 464.88 423.402 464.682 422.24 464.243C421.591 463.987 420.955 463.698 420.336 463.377C418.526 464.554 416.656 463.663 414.465 464.13C413.17 464.502 412.017 465.257 411.158 466.295C408.61 469.01 406.905 472.406 406.248 476.07C406.006 477.447 405.685 479.144 404.352 479.534C403.847 479.631 403.334 479.683 402.819 479.69C400.412 480.001 399.425 482.85 397.875 484.729C395.988 487.015 392.602 488.504 392.395 491.465C392.343 492.227 392.507 493.067 392.083 493.708C391.797 494.09 391.376 494.35 390.905 494.435C390.164 494.539 389.408 494.432 388.725 494.126C388.042 493.82 387.459 493.326 387.044 492.703C386.237 491.439 385.681 490.031 385.407 488.556L380.931 470.806C380.367 468.823 379.976 466.795 379.762 464.745C379.561 461.458 380.252 458.178 381.763 455.251C383.273 452.325 385.547 449.861 388.342 448.121Z" fill="black"/>
<path d="M388.005 447.792C390.429 446.328 393.494 445.471 396.109 446.432C398.108 446.063 400.137 445.877 402.17 445.878C403.283 445.962 404.402 445.853 405.478 445.558C406.274 445.208 407.044 444.8 407.781 444.337C411.201 442.519 414.993 443.203 418.604 443.67C421.539 444.051 426.5 442.986 428.197 446.346C428.454 446.799 428.555 447.324 428.484 447.84C428.414 448.356 428.176 448.835 427.808 449.203C427.479 449.446 427.055 449.541 426.803 449.887C426.682 450.129 426.609 450.393 426.589 450.664C426.57 450.934 426.605 451.206 426.691 451.463L429.115 463.585C427.999 464.128 426.783 464.438 425.543 464.495C424.303 464.551 423.064 464.354 421.903 463.914C421.253 463.658 420.618 463.369 419.998 463.048C418.188 464.226 416.318 463.334 414.127 463.801C412.832 464.173 411.679 464.928 410.82 465.966C408.273 468.681 406.568 472.077 405.911 475.741C405.668 477.118 405.348 478.815 404.014 479.205C403.509 479.302 402.996 479.354 402.482 479.361C400.075 479.672 399.088 482.521 397.538 484.4C395.65 486.686 392.265 488.175 392.057 491.136C392.005 491.898 392.169 492.738 391.745 493.379C391.459 493.762 391.038 494.021 390.568 494.106C389.826 494.211 389.07 494.103 388.387 493.797C387.704 493.491 387.121 492.998 386.706 492.374C385.899 491.11 385.344 489.702 385.069 488.227L380.593 470.477C380.03 468.494 379.638 466.466 379.424 464.416C379.223 461.129 379.915 457.849 381.425 454.922C382.936 451.996 385.209 449.532 388.005 447.792Z" fill="#865A61"/>
</g>
<defs>
<linearGradient id="paint0_linear_14_8" x1="483.144" y1="546.031" x2="353.319" y2="546.031" gradientUnits="userSpaceOnUse">
<stop stop-color="#808080" stop-opacity="0.25"/>
<stop offset="0.54" stop-color="#808080" stop-opacity="0.12"/>
<stop offset="1" stop-color="#808080" stop-opacity="0.1"/>
</linearGradient>
<clipPath id="clip0_14_8">
<rect width="989" height="676.324" fill="white"/>
</clipPath>
</defs>
</svg>
